<svg version="1.1" xmlns="http://www.w3.org/2000/svg" width="32" height="32" viewBox="0 0 32 32" fill="none"><path d="M16 2.333c1.107-0 2.172 0.423 2.976 1.184s1.288 1.799 1.35 2.904l0.007 0.245h7c0.253 0 0.497 0.096 0.682 0.269s0.298 0.41 0.315 0.663-0.062 0.503-0.222 0.699c-0.16 0.197-0.388 0.325-0.639 0.36l-0.136 0.009h-1.061l-1.707 17.36c-0.086 0.866-0.476 1.672-1.101 2.277s-1.445 0.966-2.313 1.022l-0.235 0.008h-9.832c-0.87 0-1.712-0.309-2.375-0.873s-1.104-1.344-1.244-2.203l-0.031-0.232-1.708-17.359h-1.060c-0.242 0-0.475-0.088-0.657-0.246s-0.301-0.378-0.333-0.618l-0.009-0.136c0-0.242 0.088-0.475 0.246-0.657s0.378-0.301 0.618-0.333l0.136-0.009h7c0-1.149 0.457-2.251 1.269-3.064s1.915-1.269 3.064-1.269zM24.263 8.667h-16.527l1.689 17.163c0.037 0.383 0.206 0.741 0.478 1.014s0.629 0.443 1.012 0.482l0.169 0.008h9.832c0.8 0 1.479-0.567 1.633-1.336l0.027-0.168 1.685-17.163h0.001zM18.333 12.333c0.242 0 0.475 0.088 0.657 0.246s0.3 0.378 0.333 0.618l0.009 0.136v9.333c-0 0.253-0.096 0.497-0.269 0.682s-0.41 0.298-0.663 0.315-0.503-0.062-0.699-0.222c-0.197-0.16-0.325-0.388-0.36-0.639l-0.009-0.136v-9.333c0-0.265 0.105-0.52 0.293-0.707s0.442-0.293 0.707-0.293zM13.667 12.333c0.242 0 0.475 0.088 0.657 0.246s0.3 0.378 0.333 0.618l0.009 0.136v9.333c-0 0.253-0.096 0.497-0.269 0.682s-0.41 0.298-0.662 0.315-0.503-0.062-0.699-0.222c-0.197-0.16-0.325-0.388-0.36-0.639l-0.009-0.136v-9.333c0-0.265 0.105-0.52 0.293-0.707s0.442-0.293 0.707-0.293zM16 4.333c-0.586 0-1.15 0.22-1.58 0.617s-0.697 0.941-0.745 1.524l-0.008 0.192h4.667c0-0.619-0.246-1.212-0.683-1.65s-1.031-0.683-1.65-0.683z"></path></svg>